<svg width="523" height="120" viewBox="0 0 523 120" fill="none" xmlns="http://www.w3.org/2000/svg">
<path d="M359.761 98.6172L328.38 21.6719H340.256L359.993 71.1318L380.009 21.6719H391.883L359.761 98.6172ZM180.612 67.8242C180.612 73.3834 180.224 77.5297 179.447 80.2627C178.671 83.3684 177.351 85.9928 175.487 88.1357C171.854 92.3905 167.04 94.5176 161.046 94.5176C156.512 94.5176 152.272 93.3378 148.328 90.9775L153.639 81.707C156.278 83.4772 158.748 84.3623 161.046 84.3623C164.276 84.3623 166.512 83.1351 167.754 80.6816C169.058 78.2281 169.711 73.9423 169.711 67.8242V21.6719H180.612V67.8242ZM208.406 46.5811C213.686 46.5811 218.423 48.7555 222.615 53.1035V47.8389H233.144V93.2139H222.615V88.4619C218.298 92.4992 213.655 94.5175 208.687 94.5176C202.413 94.5176 197.226 92.2508 193.127 87.7168C189.059 83.0893 187.023 77.3124 187.023 70.3867C187.023 63.5853 189.058 57.9171 193.127 53.3828C197.195 48.8488 202.288 46.5811 208.406 46.5811ZM285.58 93.2139H275.052V88.4619C270.921 92.4993 266.247 94.5176 261.029 94.5176C254.818 94.5175 249.663 92.2508 245.563 87.7168C241.495 83.0893 239.46 77.3124 239.46 70.3867C239.46 63.6163 241.495 57.964 245.563 53.4297C249.601 48.8644 254.679 46.5811 260.797 46.5811C266.107 46.5812 270.859 48.7556 275.052 53.1035V21.6719H285.58V93.2139ZM313.792 46.5811C320.469 46.5811 325.749 48.7091 329.631 52.9639C333.482 57.1876 335.407 63.0417 335.407 70.5264L335.361 72.9951H302.845C303.124 76.7219 304.336 79.6885 306.479 81.8936C308.621 84.0673 311.37 85.1543 314.724 85.1543C317.332 85.1543 319.491 84.5333 321.199 83.291C322.876 82.0488 324.786 79.7504 326.929 76.3965L335.78 81.334C334.414 83.6632 332.97 85.6667 331.448 87.3438C329.926 88.9897 328.296 90.3564 326.557 91.4434C324.818 92.4992 322.939 93.2755 320.92 93.7725C318.901 94.2693 316.712 94.5175 314.352 94.5176C307.581 94.5176 302.145 92.3441 298.046 87.9961C293.946 83.6171 291.897 77.8094 291.896 70.5732C291.896 63.3993 293.884 57.5915 297.859 53.1504C301.866 48.7714 307.177 46.5811 313.792 46.5811ZM404.095 46.5811C409.374 46.5811 414.111 48.7555 418.304 53.1035V47.8389H428.832V93.2139H418.304V88.4619C413.987 92.4992 409.344 94.5175 404.375 94.5176C398.102 94.5176 392.915 92.2508 388.815 87.7168C384.747 83.0893 382.712 77.3124 382.712 70.3867C382.712 63.5853 384.747 57.9171 388.815 53.3828C392.884 48.8488 397.977 46.5811 404.095 46.5811ZM447.773 73.8809C447.774 81.3962 450.739 85.1541 456.671 85.1543C462.603 85.1543 465.569 81.3964 465.569 73.8809V47.8389H476.051V74.1133C476.051 77.7468 475.601 80.8837 474.7 83.5234C473.831 85.8838 472.324 88.0118 470.181 89.9062C466.64 92.9807 462.137 94.5176 456.671 94.5176C451.236 94.5175 446.748 92.9807 443.208 89.9062C441.034 88.0118 439.496 85.8838 438.596 83.5234C437.726 81.4116 437.292 78.2747 437.292 74.1133V47.8389H447.773V73.8809ZM494.992 93.2139H484.511V21.6719H494.992V93.2139ZM514.307 47.8389H522.459V57.6221H514.307V93.2139H503.825V57.6221H499.353V47.8389H503.825V31.208H514.307V47.8389ZM210.363 56.0381C206.761 56.0381 203.748 57.4047 201.325 60.1377C198.934 62.9017 197.738 66.3183 197.738 70.3867C197.738 74.7346 198.903 78.2748 201.232 81.0078C203.624 83.7718 206.636 85.1542 210.27 85.1543C214.152 85.1543 217.289 83.8184 219.681 81.1475C222.072 78.3835 223.268 74.8737 223.268 70.6191C223.268 66.3645 222.072 62.8548 219.681 60.0908C217.289 57.3889 214.183 56.0381 210.363 56.0381ZM262.8 56.0381C259.197 56.0381 256.184 57.4047 253.762 60.1377C251.37 62.9017 250.175 66.3183 250.175 70.3867C250.175 74.7346 251.34 78.2748 253.669 81.0078C256.06 83.7718 259.073 85.1542 262.706 85.1543C266.588 85.1543 269.726 83.8184 272.117 81.1475C274.508 78.3835 275.704 74.8737 275.704 70.6191C275.704 66.3645 274.508 62.8548 272.117 60.0908C269.726 57.3889 266.62 56.0381 262.8 56.0381ZM406.052 56.0381C402.449 56.0381 399.436 57.4047 397.014 60.1377C394.622 62.9017 393.427 66.3183 393.427 70.3867C393.427 74.7346 394.592 78.2748 396.921 81.0078C399.312 83.7718 402.325 85.1542 405.958 85.1543C409.84 85.1543 412.978 83.8184 415.369 81.1475C417.76 78.3835 418.956 74.8737 418.956 70.6191C418.956 66.3645 417.76 62.8548 415.369 60.0908C412.978 57.3889 409.872 56.0381 406.052 56.0381ZM314.025 56.0381C312.752 56.0381 311.556 56.2398 310.438 56.6436C309.32 57.0162 308.295 57.576 307.363 58.3213C306.463 59.0355 305.686 59.9049 305.034 60.9297C304.382 61.9546 303.885 63.1194 303.543 64.4238H324.6C323.14 58.8337 319.615 56.0382 314.025 56.0381Z" fill="white"/>
<path d="M119.3 63.3851C117.448 93.4183 93.4202 117.445 63.3857 119.297V101.318C83.512 99.5374 99.5414 83.5105 101.322 63.3851H119.3Z" fill="url(#paint0_linear_32450_954)"/>
<path d="M55.9144 17.979C35.7881 19.7598 19.7587 35.7885 17.9778 55.9141H0C1.8523 25.8808 25.8799 1.85217 55.9144 0V17.979Z" fill="url(#paint1_linear_32450_954)"/>
<path d="M17.9778 63.3851C19.7587 83.5105 35.7882 99.5374 55.9144 101.318V119.297C25.88 117.445 1.8523 93.4183 0 63.3851H17.9778Z" fill="url(#paint2_linear_32450_954)" fill-opacity="0.6"/>
<path d="M63.3857 0C93.4202 1.85217 117.448 25.8808 119.3 55.9141H101.322C99.5414 35.7885 83.512 19.7598 63.3857 17.979V0Z" fill="url(#paint3_linear_32450_954)" fill-opacity="0.6"/>
<path d="M59.7617 27.8008C77.3503 27.8009 91.6084 42.059 91.6084 59.6475C91.6083 77.2359 77.3502 91.494 59.7617 91.4941C42.1731 91.4941 27.9141 77.2359 27.9141 59.6475C27.9141 42.0589 42.1731 27.8008 59.7617 27.8008ZM59.6494 47.0098C54.2806 47.0098 49.9279 51.3619 49.9277 56.7305C49.9277 60.5571 52.1402 63.8652 55.3545 65.4512V75.2344H63.8271V65.5098C67.105 63.9471 69.3701 60.6036 69.3701 56.7305C69.3699 51.3619 65.0182 47.0099 59.6494 47.0098Z" fill="url(#paint4_linear_32450_954)"/>
<defs>
<linearGradient id="paint0_linear_32450_954" x1="22.4505" y1="11.1576" x2="102.827" y2="106.813" gradientUnits="userSpaceOnUse">
<stop stop-color="#7DBB89"/>
<stop offset="0.597887" stop-color="#489A64"/>
<stop offset="1" stop-color="#4E8B60"/>
</linearGradient>
<linearGradient id="paint1_linear_32450_954" x1="22.4505" y1="11.1576" x2="102.827" y2="106.813" gradientUnits="userSpaceOnUse">
<stop stop-color="#7DBB89"/>
<stop offset="0.597887" stop-color="#489A64"/>
<stop offset="1" stop-color="#4E8B60"/>
</linearGradient>
<linearGradient id="paint2_linear_32450_954" x1="22.4505" y1="11.1576" x2="102.827" y2="106.813" gradientUnits="userSpaceOnUse">
<stop stop-color="#7DBB89"/>
<stop offset="0.597887" stop-color="#489A64"/>
<stop offset="1" stop-color="#4E8B60"/>
</linearGradient>
<linearGradient id="paint3_linear_32450_954" x1="22.4505" y1="11.1576" x2="102.827" y2="106.813" gradientUnits="userSpaceOnUse">
<stop stop-color="#7DBB89"/>
<stop offset="0.597887" stop-color="#489A64"/>
<stop offset="1" stop-color="#4E8B60"/>
</linearGradient>
<linearGradient id="paint4_linear_32450_954" x1="39.7936" y1="34.6251" x2="78.2116" y2="85.6814" gradientUnits="userSpaceOnUse">
<stop stop-color="#68AE7A"/>
<stop offset="1" stop-color="#4B9563"/>
</linearGradient>
</defs>
</svg>
